<svg width="100" height="35" viewBox="0 0 100 35" fill="none" xmlns="http://www.w3.org/2000/svg">
<rect width="100" height="35" rx="5" fill="#0091AD"/>
<path d="M84.9531 23H84.4258V12.4531H84.9531V23ZM83.8984 23H83.3711V12.4531H83.8984V23ZM82.8438 23H82.3164V12.4531H82.8438V23ZM86.0078 20.3633H91.0542V20.8906H86.0078V21.418H91.0542V21.9453H86.0078V22.4727H91.0542V23H85.4805V12.4531H91.0542V12.9805H86.0078V13.5078H91.0542V14.0352H86.0078V14.5625H91.0542V15.0898H86.0078V16.4009H90.7612V16.9282H86.0078V17.4556H90.7612V17.9829H86.0078V18.5103H90.7612V19.0376H86.0078V20.3633Z" fill="white"/>
<path d="M71.5352 16.4082V23H71.0078V16.4082C71.0078 16.2666 70.9834 16.147 70.9346 16.0493C70.8906 15.9468 70.832 15.8687 70.7588 15.8149C70.6855 15.7612 70.5879 15.7197 70.4658 15.6904C70.3486 15.6562 70.2339 15.6367 70.1216 15.6318C70.0093 15.6221 69.8701 15.6172 69.7041 15.6172C69.5381 15.6172 69.3989 15.6221 69.2866 15.6318C69.1743 15.6367 69.0571 15.6562 68.9351 15.6904C68.8179 15.7197 68.7227 15.7612 68.6494 15.8149C68.5762 15.8687 68.5151 15.9468 68.4663 16.0493C68.4224 16.147 68.4004 16.2666 68.4004 16.4082V23H67.873V16.4082C67.873 15.5293 68.4834 15.0898 69.7041 15.0898C70.9248 15.0898 71.5352 15.5293 71.5352 16.4082ZM72.5898 16.4082V23H72.0625V16.4082C72.0625 15.7881 71.8428 15.3267 71.4033 15.0239C70.9688 14.7163 70.4023 14.5625 69.7041 14.5625C69.0059 14.5625 68.437 14.7163 67.9976 15.0239C67.563 15.3267 67.3457 15.7881 67.3457 16.4082V23H66.8184V16.4082C66.8184 15.8955 66.9502 15.4561 67.2139 15.0898C67.4775 14.7236 67.8218 14.4575 68.2466 14.2915C68.6763 14.1206 69.1621 14.0352 69.7041 14.0352C70.2461 14.0352 70.7295 14.1206 71.1543 14.2915C71.584 14.4575 71.9307 14.7236 72.1943 15.0898C72.458 15.4561 72.5898 15.8955 72.5898 16.4082ZM73.6445 16.4082V23H73.1172V16.4082C73.1172 15.9492 73.0269 15.5342 72.8462 15.1631C72.6704 14.792 72.4263 14.4868 72.1138 14.2476C71.8013 14.0083 71.4399 13.8252 71.0298 13.6982C70.6196 13.5713 70.1777 13.5078 69.7041 13.5078C69.2305 13.5078 68.7886 13.5713 68.3784 13.6982C67.9683 13.8252 67.6069 14.0083 67.2944 14.2476C66.9819 14.4868 66.7354 14.792 66.5547 15.1631C66.3789 15.5342 66.291 15.9492 66.291 16.4082V23H65.7637V16.4082C65.7637 15.876 65.8662 15.3926 66.0713 14.958C66.2812 14.5234 66.5645 14.1646 66.9209 13.8813C67.2773 13.5933 67.6948 13.3711 68.1733 13.2148C68.6519 13.0586 69.1621 12.9805 69.7041 12.9805C70.2461 12.9805 70.7563 13.0586 71.2349 13.2148C71.7134 13.3711 72.1309 13.5933 72.4873 13.8813C72.8438 14.1646 73.1245 14.5234 73.3296 14.958C73.5396 15.3926 73.6445 15.876 73.6445 16.4082ZM74.6992 23H74.1719V16.4082C74.1719 15.876 74.0522 15.3657 73.813 14.8774C73.5786 14.3892 73.2612 13.9692 72.8608 13.6177C72.4604 13.2612 71.9844 12.978 71.4326 12.7681C70.8809 12.5581 70.3047 12.4531 69.7041 12.4531C68.8789 12.4531 68.1294 12.6094 67.4556 12.9219C66.7866 13.2295 66.2495 13.6885 65.8442 14.2988C65.439 14.9043 65.2363 15.6074 65.2363 16.4082V23H64.709V16.4082C64.709 15.7344 64.8408 15.1143 65.1045 14.5479C65.3682 13.9814 65.7246 13.5078 66.1738 13.127C66.6279 12.7461 67.1577 12.4507 67.7632 12.2407C68.3735 12.0308 69.0205 11.9258 69.7041 11.9258C70.915 11.9258 71.9648 12.231 72.8535 12.8413C73.7422 12.231 74.792 11.9258 76.0029 11.9258C76.6865 11.9258 77.3311 12.0308 77.9365 12.2407C78.5469 12.4507 79.0767 12.7461 79.5259 13.127C79.98 13.5078 80.3389 13.9814 80.6025 14.5479C80.8662 15.1143 80.998 15.7344 80.998 16.4082V23H80.4707V16.4082C80.4707 15.6123 80.2681 14.9116 79.8628 14.3062C79.4575 13.6958 78.918 13.2344 78.2441 12.9219C77.5752 12.6094 76.8281 12.4531 76.0029 12.4531C74.9678 12.4531 74.0645 12.6973 73.293 13.1855C73.4053 13.2832 73.5298 13.4102 73.6665 13.5664C74.3354 13.1758 75.1143 12.9805 76.0029 12.9805C76.5449 12.9805 77.0552 13.0586 77.5337 13.2148C78.0122 13.3711 78.4297 13.5933 78.7861 13.8813C79.1426 14.1646 79.4233 14.5234 79.6284 14.958C79.8384 15.3926 79.9434 15.876 79.9434 16.4082V23H79.416V16.4082C79.416 15.9492 79.3257 15.5342 79.145 15.1631C78.9692 14.792 78.7251 14.4868 78.4126 14.2476C78.1001 14.0083 77.7388 13.8252 77.3286 13.6982C76.9185 13.5713 76.4766 13.5078 76.0029 13.5078C75.2266 13.5078 74.5552 13.6665 73.9888 13.9839C74.0767 14.1206 74.1646 14.272 74.2524 14.438C74.731 14.1694 75.3145 14.0352 76.0029 14.0352C76.5449 14.0352 77.0283 14.1206 77.4531 14.2915C77.8828 14.4575 78.2295 14.7236 78.4932 15.0898C78.7568 15.4561 78.8887 15.8955 78.8887 16.4082V23H78.3613V16.4082C78.3613 15.7881 78.1416 15.3267 77.7021 15.0239C77.2676 14.7163 76.7012 14.5625 76.0029 14.5625C75.3682 14.5625 74.853 14.6797 74.4575 14.9141C74.521 15.0996 74.5698 15.2754 74.604 15.4414C74.9116 15.207 75.3779 15.0898 76.0029 15.0898C77.2236 15.0898 77.834 15.5293 77.834 16.4082V23H77.3066V16.4082C77.3066 16.2666 77.2822 16.147 77.2334 16.0493C77.1895 15.9468 77.1309 15.8687 77.0576 15.8149C76.9844 15.7612 76.8867 15.7197 76.7646 15.6904C76.6475 15.6562 76.5327 15.6367 76.4204 15.6318C76.3081 15.6221 76.1689 15.6172 76.0029 15.6172C75.8369 15.6172 75.6978 15.6221 75.5854 15.6318C75.4731 15.6367 75.356 15.6562 75.2339 15.6904C75.1167 15.7197 75.0215 15.7612 74.9482 15.8149C74.875 15.8687 74.814 15.9468 74.7651 16.0493C74.7212 16.147 74.6992 16.2666 74.6992 16.4082V23Z" fill="white"/>
<path d="M59.8018 17.7998C59.8018 17.1748 59.6089 16.6914 59.2231 16.3496C58.8374 16.0078 58.3271 15.8369 57.6924 15.8369C57.1553 15.8369 56.6938 16.0225 56.3081 16.3936C55.9224 16.7646 55.7295 17.209 55.7295 17.7266C55.7295 18.0195 55.7686 18.2832 55.8467 18.5176C55.9248 18.7471 56.0298 18.9399 56.1616 19.0962C56.2983 19.2476 56.4595 19.3745 56.645 19.4771C56.8306 19.5747 57.0234 19.6455 57.2236 19.6895C57.4287 19.7334 57.646 19.7554 57.8755 19.7554C58.4321 19.7554 58.9399 19.6187 59.3989 19.3452V19.8726C58.9253 20.1216 58.415 20.2461 57.8682 20.2461C57.5166 20.2461 57.1846 20.1997 56.8721 20.1069C56.5645 20.0093 56.2837 19.8652 56.0298 19.6748C55.7759 19.4795 55.5732 19.2158 55.4219 18.8838C55.2754 18.5469 55.2021 18.1611 55.2021 17.7266C55.2021 17.0527 55.439 16.4814 55.9126 16.0127C56.3862 15.5439 56.9795 15.3096 57.6924 15.3096C58.4785 15.3096 59.1133 15.5317 59.5967 15.9761C60.085 16.4155 60.3291 17.0234 60.3291 17.7998V23H59.8018V17.7998ZM61.3838 17.7998V23H60.8564V17.7998C60.8564 16.877 60.561 16.1445 59.9702 15.6025C59.3794 15.0557 58.6201 14.7822 57.6924 14.7822C56.833 14.7822 56.1152 15.0679 55.5391 15.6392C54.9629 16.2104 54.6748 16.9062 54.6748 17.7266C54.6748 18.2246 54.7603 18.6714 54.9312 19.0669C55.1069 19.4624 55.3438 19.7798 55.6416 20.019C55.9395 20.2583 56.2715 20.4414 56.6377 20.5684C57.0088 20.6904 57.3994 20.7515 57.8096 20.7515C58.3662 20.7515 58.896 20.6221 59.3989 20.3633V20.9199C58.8716 21.1396 58.3394 21.2495 57.8022 21.2495C57.3188 21.2495 56.8599 21.1763 56.4253 21.0298C55.9907 20.8784 55.6025 20.6611 55.2607 20.3779C54.9189 20.0898 54.6479 19.7188 54.4478 19.2646C54.2476 18.8057 54.1475 18.293 54.1475 17.7266C54.1475 16.7646 54.4868 15.9468 55.1655 15.2729C55.8491 14.5942 56.6914 14.2549 57.6924 14.2549C58.3955 14.2549 59.0254 14.3989 59.582 14.687C60.1387 14.9702 60.5781 15.3828 60.9004 15.9248C61.2227 16.4668 61.3838 17.0918 61.3838 17.7998ZM62.4385 17.7998V23H61.9111V17.7998C61.9111 16.9941 61.7256 16.2812 61.3545 15.6611C60.9883 15.0361 60.4854 14.5576 59.8457 14.2256C59.2061 13.8936 58.4883 13.7275 57.6924 13.7275C56.9355 13.7275 56.2446 13.9082 55.6196 14.2695C54.9946 14.626 54.5039 15.1094 54.1475 15.7197C53.7959 16.3301 53.6201 16.999 53.6201 17.7266C53.6201 18.3516 53.7349 18.9229 53.9644 19.4404C54.1938 19.9531 54.5015 20.3755 54.8872 20.7075C55.2778 21.0396 55.7197 21.2983 56.2129 21.4839C56.7109 21.6646 57.231 21.7549 57.7729 21.7549C58.3247 21.7549 58.8667 21.6401 59.3989 21.4106V21.9453C58.8423 22.1553 58.2954 22.2603 57.7583 22.2603C56.9136 22.2603 56.1372 22.0698 55.4292 21.689C54.7212 21.3081 54.1548 20.7686 53.73 20.0703C53.3052 19.3721 53.0928 18.5908 53.0928 17.7266C53.0928 17.1113 53.21 16.5254 53.4443 15.9688C53.6836 15.4121 54.0059 14.9312 54.4111 14.5259C54.8164 14.1206 55.3047 13.7983 55.876 13.5591C56.4473 13.3198 57.0527 13.2002 57.6924 13.2002C58.5859 13.2002 59.3916 13.3906 60.1094 13.7715C60.832 14.1523 61.4009 14.6943 61.8159 15.3975C62.231 16.1006 62.4385 16.9014 62.4385 17.7998ZM63.4932 17.7998V23H62.9658V17.7998C62.9658 16.8037 62.7339 15.915 62.27 15.1338C61.8062 14.3477 61.1738 13.7422 60.373 13.3174C59.5723 12.8877 58.6787 12.6729 57.6924 12.6729C56.7451 12.6729 55.8784 12.8999 55.0923 13.354C54.3062 13.8081 53.6885 14.4233 53.2393 15.1997C52.79 15.9712 52.5654 16.8135 52.5654 17.7266C52.5654 18.3271 52.6606 18.8984 52.8511 19.4404C53.0464 19.9775 53.3101 20.4487 53.6421 20.854C53.979 21.2544 54.3647 21.6011 54.7993 21.894C55.2388 22.187 55.71 22.4092 56.2129 22.5605C56.7207 22.7119 57.2358 22.7876 57.7583 22.7876C58.3345 22.7876 58.8813 22.6777 59.3989 22.458V23C58.8569 23.1904 58.3003 23.2856 57.729 23.2856C57.1382 23.2856 56.562 23.2026 56.0005 23.0366C55.4438 22.8706 54.9263 22.6265 54.4478 22.3042C53.9741 21.9771 53.5566 21.5938 53.1953 21.1543C52.834 20.71 52.5508 20.1924 52.3457 19.6016C52.1406 19.0107 52.0381 18.3857 52.0381 17.7266C52.0381 16.9697 52.1797 16.2495 52.4629 15.5659C52.751 14.8774 53.1416 14.2842 53.6348 13.7861C54.1328 13.2832 54.7334 12.8853 55.4365 12.5923C56.1445 12.2944 56.8965 12.1455 57.6924 12.1455C58.5029 12.1455 59.2646 12.2822 59.9775 12.5557C60.6904 12.8291 61.3057 13.21 61.8232 13.6982C62.3408 14.1816 62.7485 14.7773 63.0464 15.4854C63.3442 16.1934 63.4932 16.9648 63.4932 17.7998Z" fill="white"/>
<path d="M41.5352 16.4082V23H41.0078V16.4082C41.0078 16.2666 40.9834 16.147 40.9346 16.0493C40.8906 15.9468 40.832 15.8687 40.7588 15.8149C40.6855 15.7612 40.5879 15.7197 40.4658 15.6904C40.3486 15.6562 40.2339 15.6367 40.1216 15.6318C40.0093 15.6221 39.8701 15.6172 39.7041 15.6172C39.5381 15.6172 39.3989 15.6221 39.2866 15.6318C39.1743 15.6367 39.0571 15.6562 38.9351 15.6904C38.8179 15.7197 38.7227 15.7612 38.6494 15.8149C38.5762 15.8687 38.5151 15.9468 38.4663 16.0493C38.4224 16.147 38.4004 16.2666 38.4004 16.4082V23H37.873V16.4082C37.873 15.5293 38.4834 15.0898 39.7041 15.0898C40.9248 15.0898 41.5352 15.5293 41.5352 16.4082ZM42.5898 16.4082V23H42.0625V16.4082C42.0625 15.7881 41.8428 15.3267 41.4033 15.0239C40.9688 14.7163 40.4023 14.5625 39.7041 14.5625C39.0059 14.5625 38.437 14.7163 37.9976 15.0239C37.563 15.3267 37.3457 15.7881 37.3457 16.4082V23H36.8184V16.4082C36.8184 15.8955 36.9502 15.4561 37.2139 15.0898C37.4775 14.7236 37.8218 14.4575 38.2466 14.2915C38.6763 14.1206 39.1621 14.0352 39.7041 14.0352C40.2461 14.0352 40.7295 14.1206 41.1543 14.2915C41.584 14.4575 41.9307 14.7236 42.1943 15.0898C42.458 15.4561 42.5898 15.8955 42.5898 16.4082ZM43.6445 16.4082V23H43.1172V16.4082C43.1172 15.9492 43.0269 15.5342 42.8462 15.1631C42.6704 14.792 42.4263 14.4868 42.1138 14.2476C41.8013 14.0083 41.4399 13.8252 41.0298 13.6982C40.6196 13.5713 40.1777 13.5078 39.7041 13.5078C39.2305 13.5078 38.7886 13.5713 38.3784 13.6982C37.9683 13.8252 37.6069 14.0083 37.2944 14.2476C36.9819 14.4868 36.7354 14.792 36.5547 15.1631C36.3789 15.5342 36.291 15.9492 36.291 16.4082V23H35.7637V16.4082C35.7637 15.876 35.8662 15.3926 36.0713 14.958C36.2812 14.5234 36.5645 14.1646 36.9209 13.8813C37.2773 13.5933 37.6948 13.3711 38.1733 13.2148C38.6519 13.0586 39.1621 12.9805 39.7041 12.9805C40.2461 12.9805 40.7563 13.0586 41.2349 13.2148C41.7134 13.3711 42.1309 13.5933 42.4873 13.8813C42.8438 14.1646 43.1245 14.5234 43.3296 14.958C43.5396 15.3926 43.6445 15.876 43.6445 16.4082ZM44.6992 23H44.1719V16.4082C44.1719 15.876 44.0522 15.3657 43.813 14.8774C43.5786 14.3892 43.2612 13.9692 42.8608 13.6177C42.4604 13.2612 41.9844 12.978 41.4326 12.7681C40.8809 12.5581 40.3047 12.4531 39.7041 12.4531C38.8789 12.4531 38.1294 12.6094 37.4556 12.9219C36.7866 13.2295 36.2495 13.6885 35.8442 14.2988C35.439 14.9043 35.2363 15.6074 35.2363 16.4082V23H34.709V16.4082C34.709 15.7344 34.8408 15.1143 35.1045 14.5479C35.3682 13.9814 35.7246 13.5078 36.1738 13.127C36.6279 12.7461 37.1577 12.4507 37.7632 12.2407C38.3735 12.0308 39.0205 11.9258 39.7041 11.9258C40.915 11.9258 41.9648 12.231 42.8535 12.8413C43.7422 12.231 44.792 11.9258 46.0029 11.9258C46.6865 11.9258 47.3311 12.0308 47.9365 12.2407C48.5469 12.4507 49.0767 12.7461 49.5259 13.127C49.98 13.5078 50.3389 13.9814 50.6025 14.5479C50.8662 15.1143 50.998 15.7344 50.998 16.4082V23H50.4707V16.4082C50.4707 15.6123 50.2681 14.9116 49.8628 14.3062C49.4575 13.6958 48.918 13.2344 48.2441 12.9219C47.5752 12.6094 46.8281 12.4531 46.0029 12.4531C44.9678 12.4531 44.0645 12.6973 43.293 13.1855C43.4053 13.2832 43.5298 13.4102 43.6665 13.5664C44.3354 13.1758 45.1143 12.9805 46.0029 12.9805C46.5449 12.9805 47.0552 13.0586 47.5337 13.2148C48.0122 13.3711 48.4297 13.5933 48.7861 13.8813C49.1426 14.1646 49.4233 14.5234 49.6284 14.958C49.8384 15.3926 49.9434 15.876 49.9434 16.4082V23H49.416V16.4082C49.416 15.9492 49.3257 15.5342 49.145 15.1631C48.9692 14.792 48.7251 14.4868 48.4126 14.2476C48.1001 14.0083 47.7388 13.8252 47.3286 13.6982C46.9185 13.5713 46.4766 13.5078 46.0029 13.5078C45.2266 13.5078 44.5552 13.6665 43.9888 13.9839C44.0767 14.1206 44.1646 14.272 44.2524 14.438C44.731 14.1694 45.3145 14.0352 46.0029 14.0352C46.5449 14.0352 47.0283 14.1206 47.4531 14.2915C47.8828 14.4575 48.2295 14.7236 48.4932 15.0898C48.7568 15.4561 48.8887 15.8955 48.8887 16.4082V23H48.3613V16.4082C48.3613 15.7881 48.1416 15.3267 47.7021 15.0239C47.2676 14.7163 46.7012 14.5625 46.0029 14.5625C45.3682 14.5625 44.853 14.6797 44.4575 14.9141C44.521 15.0996 44.5698 15.2754 44.604 15.4414C44.9116 15.207 45.3779 15.0898 46.0029 15.0898C47.2236 15.0898 47.834 15.5293 47.834 16.4082V23H47.3066V16.4082C47.3066 16.2666 47.2822 16.147 47.2334 16.0493C47.1895 15.9468 47.1309 15.8687 47.0576 15.8149C46.9844 15.7612 46.8867 15.7197 46.7646 15.6904C46.6475 15.6562 46.5327 15.6367 46.4204 15.6318C46.3081 15.6221 46.1689 15.6172 46.0029 15.6172C45.8369 15.6172 45.6978 15.6221 45.5854 15.6318C45.4731 15.6367 45.356 15.6562 45.2339 15.6904C45.1167 15.7197 45.0215 15.7612 44.9482 15.8149C44.875 15.8687 44.814 15.9468 44.7651 16.0493C44.7212 16.147 44.6992 16.2666 44.6992 16.4082V23Z" fill="white"/>
<path d="M26.3154 16.2397C25.9053 16.6499 25.7002 17.1455 25.7002 17.7266C25.7002 18.3076 25.9053 18.8057 26.3154 19.2207C26.7305 19.6309 27.2285 19.8359 27.8096 19.8359C28.3906 19.8359 28.8862 19.6309 29.2964 19.2207C29.7114 18.8057 29.9189 18.3076 29.9189 17.7266C29.9189 17.1455 29.7114 16.6499 29.2964 16.2397C28.8862 15.8247 28.3906 15.6172 27.8096 15.6172C27.2285 15.6172 26.7305 15.8247 26.3154 16.2397ZM25.9419 19.5942C25.4292 19.0767 25.1729 18.4541 25.1729 17.7266C25.1729 16.999 25.4292 16.3789 25.9419 15.8662C26.4595 15.3486 27.082 15.0898 27.8096 15.0898C28.5371 15.0898 29.1572 15.3486 29.6699 15.8662C30.1875 16.3789 30.4463 16.999 30.4463 17.7266C30.4463 18.4541 30.1875 19.0767 29.6699 19.5942C29.1572 20.1069 28.5371 20.3633 27.8096 20.3633C27.082 20.3633 26.4595 20.1069 25.9419 19.5942ZM25.5684 15.4927C24.9531 16.1128 24.6455 16.8574 24.6455 17.7266C24.6455 18.5957 24.9531 19.3403 25.5684 19.9604C26.1885 20.5806 26.9355 20.8906 27.8096 20.8906C28.6836 20.8906 29.4282 20.5806 30.0435 19.9604C30.6636 19.3403 30.9736 18.5957 30.9736 17.7266C30.9736 16.8574 30.6636 16.1128 30.0435 15.4927C29.4282 14.8726 28.6836 14.5625 27.8096 14.5625C26.9355 14.5625 26.1885 14.8726 25.5684 15.4927ZM24.6089 19.5796C24.2817 19.0132 24.1182 18.3955 24.1182 17.7266C24.1182 17.0576 24.2817 16.4399 24.6089 15.8735C24.9409 15.3071 25.3901 14.8604 25.9565 14.5332C26.5229 14.2012 27.1406 14.0352 27.8096 14.0352C28.4785 14.0352 29.0962 14.2012 29.6626 14.5332C30.229 14.8604 30.6758 15.3071 31.0029 15.8735C31.335 16.4399 31.501 17.0576 31.501 17.7266C31.501 18.3955 31.335 19.0132 31.0029 19.5796C30.6758 20.146 30.229 20.5952 29.6626 20.9272C29.0962 21.2544 28.4785 21.418 27.8096 21.418C27.1406 21.418 26.5229 21.2544 25.9565 20.9272C25.3901 20.5952 24.9409 20.146 24.6089 19.5796ZM23.9204 16.0933C23.7007 16.6108 23.5908 17.1553 23.5908 17.7266C23.5908 18.2979 23.7007 18.8447 23.9204 19.3672C24.145 19.8848 24.4453 20.334 24.8213 20.7148C25.2021 21.0908 25.6514 21.3911 26.1689 21.6157C26.6914 21.8354 27.2383 21.9453 27.8096 21.9453C28.3809 21.9453 28.9253 21.8354 29.4429 21.6157C29.9653 21.3911 30.4146 21.0908 30.7905 20.7148C31.1714 20.334 31.4717 19.8848 31.6914 19.3672C31.916 18.8447 32.0283 18.2979 32.0283 17.7266C32.0283 17.1553 31.916 16.6108 31.6914 16.0933C31.4717 15.5708 31.1714 15.1216 30.7905 14.7456C30.4146 14.3647 29.9653 14.0645 29.4429 13.8447C28.9253 13.6201 28.3809 13.5078 27.8096 13.5078C27.2383 13.5078 26.6914 13.6201 26.1689 13.8447C25.6514 14.0645 25.2021 14.3647 24.8213 14.7456C24.4453 15.1216 24.145 15.5708 23.9204 16.0933ZM23.437 19.5723C23.188 18.9863 23.0635 18.3711 23.0635 17.7266C23.0635 17.082 23.188 16.4668 23.437 15.8809C23.6909 15.2949 24.0278 14.792 24.4478 14.3721C24.8726 13.9473 25.3779 13.6104 25.9639 13.3613C26.5498 13.1074 27.165 12.9805 27.8096 12.9805C28.4541 12.9805 29.0693 13.1074 29.6553 13.3613C30.2412 13.6104 30.7441 13.9473 31.1641 14.3721C31.5889 14.792 31.9258 15.2949 32.1748 15.8809C32.4287 16.4668 32.5557 17.082 32.5557 17.7266C32.5557 18.3711 32.4287 18.9863 32.1748 19.5723C31.9258 20.1582 31.5889 20.6636 31.1641 21.0884C30.7441 21.5083 30.2412 21.8452 29.6553 22.0991C29.0693 22.3481 28.4541 22.4727 27.8096 22.4727C27.165 22.4727 26.5498 22.3481 25.9639 22.0991C25.3779 21.8452 24.8726 21.5083 24.4478 21.0884C24.0278 20.6636 23.6909 20.1582 23.437 19.5723ZM22.9536 15.6831C22.6753 16.3325 22.5361 17.0137 22.5361 17.7266C22.5361 18.4395 22.6753 19.123 22.9536 19.7773C23.2319 20.4268 23.6055 20.9883 24.0742 21.4619C24.5479 21.9307 25.1094 22.3042 25.7588 22.5825C26.4131 22.8608 27.0967 23 27.8096 23C28.5225 23 29.2036 22.8608 29.853 22.5825C30.5073 22.3042 31.0688 21.9307 31.5376 21.4619C32.0112 20.9883 32.3872 20.4268 32.6655 19.7773C32.9438 19.123 33.083 18.4395 33.083 17.7266C33.083 17.0137 32.9438 16.3325 32.6655 15.6831C32.3872 15.0288 32.0112 14.4673 31.5376 13.9985C31.0688 13.5249 30.5073 13.1489 29.853 12.8706C29.2036 12.5923 28.5225 12.4531 27.8096 12.4531C27.0967 12.4531 26.4131 12.5923 25.7588 12.8706C25.1094 13.1489 24.5479 13.5249 24.0742 13.9985C23.6055 14.4673 23.2319 15.0288 22.9536 15.6831ZM22.4702 19.9824C22.1626 19.2646 22.0088 18.5127 22.0088 17.7266C22.0088 16.9404 22.1626 16.1909 22.4702 15.478C22.7778 14.7603 23.1904 14.1426 23.708 13.625C24.2256 13.1074 24.8408 12.6948 25.5537 12.3872C26.2715 12.0796 27.0234 11.9258 27.8096 11.9258C28.5957 11.9258 29.3452 12.0796 30.0581 12.3872C30.7759 12.6948 31.3936 13.1074 31.9111 13.625C32.4287 14.1426 32.8413 14.7603 33.1489 15.478C33.4565 16.1909 33.6104 16.9404 33.6104 17.7266C33.6104 18.5127 33.4565 19.2646 33.1489 19.9824C32.8413 20.6953 32.4287 21.3105 31.9111 21.8281C31.3936 22.3457 30.7759 22.7583 30.0581 23.0659C29.3452 23.3735 28.5957 23.5273 27.8096 23.5273C27.0234 23.5273 26.2715 23.3735 25.5537 23.0659C24.8408 22.7583 24.2256 22.3457 23.708 21.8281C23.1904 21.3105 22.7778 20.6953 22.4702 19.9824Z" fill="white"/>
<path d="M13.7324 23H13.2051V10.8711H13.7324V23ZM12.6777 23H12.1504V10.8711H12.6777V23ZM11.623 23H11.0957V10.8711H11.623V23ZM10.5684 23H10.041V10.8711H10.5684V23ZM17.585 16.9355L20.6831 10.8711H21.269L18.1709 16.9355L21.269 23H20.6831L17.585 16.9355ZM16.4058 16.9355L19.5039 10.8711H20.0898L16.9917 16.9355L20.0898 23H19.5039L16.4058 16.9355ZM15.2266 16.9355L18.3247 10.8711H18.9106L15.8125 16.9355L18.9106 23H18.3247L15.2266 16.9355ZM14.04 16.9355L17.1455 10.8711H17.7314L14.626 16.9355L17.7314 23H17.1455L14.04 16.9355Z" fill="white"/>
</svg>
